<svg xmlns="http://www.w3.org/2000/svg" xmlns:xlink="http://www.w3.org/1999/xlink" width="100" zoomAndPan="magnify" viewBox="0 0 75 30.000001" height="40" preserveAspectRatio="xMidYMid meet" version="1.2"><defs><clipPath id="c7f5dc4474"><rect x="0" width="63" y="0" height="24"/></clipPath></defs><g id="49b9db4388"><g transform="matrix(1,0,0,1,6,2)"><g clip-path="url(#c7f5dc4474)"><g style="fill:#b0f000;fill-opacity:1;"><g transform="translate(0.754558, 18.068256)"><path style="stroke:none" d="M 13.84375 -4.078125 L 9.796875 -0.03125 L 0.34375 -0.03125 L 0.34375 -13.5 L 4.375 -13.5 L 4.375 -4.078125 L 5.078125 -4.078125 L 5.078125 -13.5 L 9.125 -13.5 L 9.125 -4.078125 L 9.796875 -4.078125 L 9.796875 -13.5 L 13.84375 -13.5 Z M 13.84375 -4.078125 "/></g><g transform="translate(14.935975, 18.068256)"><path style="stroke:none" d="M 9.109375 -0.03125 L 5.078125 -0.03125 L 5.078125 -4.734375 L 4.390625 -4.734375 L 4.390625 -0.03125 L 0.34375 -0.03125 L 0.34375 -13.5 L 9.109375 -13.5 Z M 5.078125 -9.453125 L 4.390625 -9.453125 L 4.390625 -8.765625 L 5.078125 -8.765625 Z M 5.078125 -9.453125 "/></g><g transform="translate(24.390252, 18.068256)"><path style="stroke:none" d="M 0.34375 -0.03125 L 0.34375 -4.078125 L 4.390625 -4.078125 L 4.390625 -13.5 L 8.4375 -13.5 L 8.4375 -0.03125 Z M 0.34375 -0.03125 "/></g><g transform="translate(33.167953, 18.068256)"><path style="stroke:none" d="M 9.109375 -0.03125 L 5.078125 -0.03125 L 5.078125 -4.734375 L 4.390625 -4.734375 L 4.390625 -0.03125 L 0.34375 -0.03125 L 0.34375 -13.5 L 9.109375 -13.5 Z M 5.078125 -9.453125 L 4.390625 -9.453125 L 4.390625 -8.765625 L 5.078125 -8.765625 Z M 5.078125 -9.453125 "/></g><g transform="translate(42.62223, 18.068256)"><path style="stroke:none" d="M 9.109375 -9.453125 L 9.109375 -8.765625 L 9.8125 -8.765625 L 9.8125 -0.03125 L 0.34375 -0.03125 L 0.34375 -13.5 L 5.0625 -13.5 Z M 5.0625 -8.765625 L 5.0625 -9.453125 L 4.390625 -9.453125 L 4.390625 -8.765625 Z M 5.0625 -4.078125 L 5.0625 -4.734375 L 4.390625 -4.734375 L 4.390625 -4.078125 Z M 5.0625 -4.078125 "/></g><g transform="translate(52.779792, 18.068256)"><path style="stroke:none" d="M 9.125 -8.8125 L 7.09375 -6.75 L 9.125 -4.734375 L 9.125 -0.015625 L 5.078125 -0.015625 L 5.078125 -4.734375 L 4.390625 -4.734375 L 4.390625 -0.03125 L 0.34375 -0.03125 L 0.34375 -13.5 L 4.390625 -13.5 L 4.390625 -8.765625 L 5.078125 -8.765625 L 5.078125 -13.5 L 9.125 -13.5 Z M 9.125 -8.8125 "/></g></g></g></g></g></svg>